<?xml version="1.0" encoding="UTF-8"?><svg id="Layer_1" xmlns="http://www.w3.org/2000/svg" xmlns:xlink="http://www.w3.org/1999/xlink" viewBox="0 0 283.47 141.73"><defs><style>.cls-1{fill:none;}.cls-2{clip-path:url(#clippath);}.cls-3{fill:#f1e949;}.cls-4{fill:#b9d7ff;}</style><clipPath id="clippath"><rect class="cls-1" x="0" y="0" width="283.46" height="141.73"/></clipPath></defs><g class="cls-2"><path class="cls-4" d="M90.45,15.56c0-7.12-3.59-12.89-8.02-12.89s-8.02,5.77-8.02,12.89,3.59,12.89,8.02,12.89,8.02-5.77,8.02-12.89m41.16-4.87s-44.48,11.69-50.88,51.62C80.89,13.6,26.53,0,26.53,0c0,0,43.05,24.59,43.63,66.89,.63,45.21-37.67,74.84-37.67,74.84,0,0,41.19-23.82,47.51-69.49,.7,45.03,59.69,62.92,59.69,62.92,0,0-48.45-23.83-49.44-65.21-.94-39.25,41.36-59.26,41.36-59.26"/><path class="cls-3" d="M248.64,108.7c.58,1.66,1.61,3.15,3.1,4.47,1.48,1.32,3.46,1.99,5.92,1.99,2.61,0,4.63-.68,6.06-2.05,1.43-1.36,2.45-2.95,3.04-4.76,.6-1.81,1.35-4.66,2.26-8.56l13.26-57.67c.8-3.51,1.2-6.06,1.2-7.65,0-2.26-.73-4.14-2.2-5.64-1.47-1.5-3.25-2.25-5.35-2.25s-3.7,.58-4.81,1.75c-1.11,1.17-1.88,2.49-2.34,3.97-.45,1.48-.93,3.53-1.44,6.14l-10.43,50.01-11.79-46.8c-.98-3.86-1.76-6.62-2.34-8.3-.58-1.67-1.62-3.22-3.12-4.64-1.5-1.42-3.61-2.13-6.33-2.13s-4.8,.68-6.36,2.04c-1.56,1.36-2.68,2.98-3.37,4.85-.69,1.87-1.47,4.6-2.34,8.18l-11.68,46.8-10.43-50.01c-.76-3.86-1.65-6.8-2.66-8.82-1.01-2.03-2.99-3.04-5.92-3.04-2.14,0-3.93,.76-5.38,2.28-1.45,1.52-2.17,3.39-2.17,5.61,0,1.75,.4,4.31,1.19,7.65l13.26,57.67c.4,1.71,.85,3.57,1.36,5.58,.51,2.01,1.16,3.74,1.96,5.2,.8,1.46,1.84,2.59,3.12,3.39,1.29,.8,2.92,1.2,4.92,1.2,2.46,0,4.44-.67,5.92-2.02,1.49-1.34,2.53-2.86,3.12-4.56,.6-1.69,1.4-4.49,2.42-8.38l13.04-51.36,12.88,51.36c1.05,4.01,1.87,6.85,2.44,8.5M173.79,39.58c1.25-1.23,1.88-2.85,1.88-4.88s-.62-3.59-1.88-4.82c-1.25-1.23-3.16-1.84-5.73-1.84h-42.6c-2.28,0-4.16,.36-5.62,1.08-1.47,.72-2.54,1.87-3.23,3.45-.69,1.58-1.03,3.61-1.03,6.11V103.06c0,3.74,.77,6.45,2.31,8.12,1.54,1.67,4.07,2.51,7.58,2.51h43.85c2.53,0,4.45-.63,5.73-1.9,1.29-1.26,1.93-2.91,1.93-4.94s-.64-3.79-1.93-5.05c-1.29-1.27-3.2-1.9-5.73-1.9h-37.6v-24.37h33.47c2.5,0,4.35-.61,5.54-1.84,1.2-1.23,1.79-2.81,1.79-4.76s-.61-3.51-1.82-4.7c-1.21-1.19-3.05-1.78-5.51-1.78h-33.47v-21.04h36.35c2.57,0,4.48-.61,5.73-1.84"/><path class="cls-3" d="M41.29,44.13c2.06,2.38,3.1,5.45,3.1,9.23,0,3.15-.67,5.71-2.01,7.65-1.34,1.95-3.29,3.35-5.84,4.21-2.55,.86-5.73,1.28-9.53,1.28h-10.87v-26.18h10.87c7.21,0,11.97,1.27,14.29,3.8m11.95,28.72c5-4.5,7.5-11.11,7.5-19.84,0-4.09-.62-7.77-1.85-11.04-1.23-3.27-3.03-6.04-5.41-8.3-2.37-2.26-5.19-3.88-8.45-4.85-3.3-1.01-8.01-1.52-14.13-1.52H10.22c-3.55,0-6.14,.82-7.77,2.45-1.63,1.64-2.45,4.36-2.45,8.18V103.97c0,3.43,.74,6.03,2.23,7.8,1.49,1.77,3.44,2.66,5.87,2.66s4.24-.9,5.76-2.69c1.52-1.79,2.28-4.42,2.28-7.89v-24.25h14.78c9.89,0,17.33-2.25,22.33-6.75"/></g></svg>