<?xml version="1.0" encoding="UTF-8"?><svg id="Layer_1" xmlns="http://www.w3.org/2000/svg" viewBox="0 0 283.46 141.73"><defs><style>.cls-1{fill:#f0e74e;}.cls-2{fill:#bbd5f1;}</style></defs><path class="cls-1" d="M40.29,61.23c-.63,1.92-1.55,3.56-2.77,4.94-1.22,1.38-2.78,2.45-4.69,3.21-1.91,.77-4.29,1.15-7.12,1.15h-7.96v-29.7h7.56c1.84,0,3.63,.12,5.37,.37,1.73,.25,3.38,.85,4.96,1.79,1.58,.95,2.9,2.41,3.98,4.4,1.08,1.99,1.62,4.51,1.62,7.58,0,2.25-.32,4.34-.94,6.26m18.02-17.18c-.99-2.86-2.43-5.37-4.32-7.51-1.89-2.14-4.17-3.91-6.85-5.31-2.68-1.4-5.32-2.36-7.93-2.88-2.61-.52-4.85-.86-6.71-1.01-1.87-.16-3.84-.24-5.9-.24H6.01c-1.8,0-3.25,.53-4.35,1.59-1.1,1.06-1.65,2.65-1.65,4.77V112.2c0,.45,.14,.86,.4,1.22,.27,.36,.74,.65,1.42,.88,.67,.23,1.58,.41,2.73,.54,1.15,.14,2.57,.2,4.28,.2s3.19-.07,4.32-.2c1.12-.14,2.03-.32,2.7-.54,.67-.22,1.16-.52,1.45-.88,.29-.36,.44-.77,.44-1.22v-27.94h7.29c5.76,0,10.76-.68,15.01-2.03,4.25-1.35,7.84-3.33,10.76-5.92,2.92-2.59,5.15-5.78,6.68-9.57,1.53-3.79,2.3-8.14,2.3-13.06,0-3.56-.5-6.78-1.49-9.64"/><path class="cls-1" d="M282.74,34.34c.4-1.67,.64-2.99,.71-3.96,.07-.97-.15-1.7-.64-2.2-.5-.5-1.29-.8-2.4-.91-1.1-.11-2.64-.17-4.62-.17-2.12,0-3.76,.06-4.93,.17-1.17,.11-2.07,.32-2.7,.61-.63,.29-1.06,.7-1.28,1.22-.23,.52-.4,1.14-.54,1.86l-15.32,66.83h-.13l-16.47-66.56c-.18-.9-.43-1.62-.74-2.16-.32-.54-.82-.96-1.52-1.25-.7-.29-1.69-.48-2.97-.57-1.28-.09-3-.14-5.16-.14-2.02,0-3.64,.06-4.86,.17-1.21,.11-2.17,.32-2.87,.61-.7,.29-1.19,.71-1.48,1.25-.29,.54-.53,1.24-.71,2.1l-15.93,66.56h-.07l-15.32-67.04c-.14-.86-.32-1.52-.54-2-.23-.47-.65-.83-1.28-1.08-.63-.25-1.56-.41-2.8-.47-1.24-.07-2.91-.1-5.03-.1-2.29,0-4.08,.06-5.37,.17-1.28,.11-2.2,.42-2.77,.91-.56,.5-.82,1.21-.78,2.13,.04,.93,.27,2.2,.68,3.82l19.84,76.37c.27,1.08,.61,1.95,1.01,2.6,.4,.65,1.06,1.15,1.96,1.49,.9,.34,2.13,.56,3.68,.68,1.55,.11,3.63,.17,6.24,.17,2.47,0,4.46-.06,5.97-.17,1.51-.11,2.7-.35,3.58-.71,.88-.36,1.52-.87,1.92-1.52,.4-.65,.72-1.5,.95-2.54l13.23-55.47h.13l13.97,55.47c.22,1.08,.54,1.95,.94,2.6,.4,.65,1.06,1.15,1.96,1.49,.9,.34,2.12,.56,3.68,.68,1.55,.11,3.61,.17,6.18,.17,2.29,0,4.18-.06,5.67-.17,1.49-.11,2.7-.34,3.64-.68,.95-.34,1.65-.83,2.13-1.49,.47-.65,.84-1.52,1.11-2.6l20.04-76.17Z"/><path class="cls-1" d="M161.74,104.38c-.11-.88-.28-1.59-.51-2.13-.23-.54-.51-.93-.84-1.18-.34-.25-.71-.37-1.11-.37h-31.45v-24.69h26.38c.4,0,.78-.11,1.11-.34,.34-.22,.62-.6,.84-1.12,.22-.52,.39-1.21,.51-2.06,.11-.86,.17-1.94,.17-3.25s-.06-2.33-.17-3.21c-.11-.88-.28-1.58-.51-2.1-.23-.52-.51-.9-.84-1.15-.34-.25-.71-.37-1.11-.37h-26.38v-21.38h31.18c.4,0,.76-.12,1.08-.37,.31-.25,.58-.64,.81-1.18,.22-.54,.39-1.25,.51-2.13,.11-.88,.17-1.95,.17-3.21,0-1.35-.06-2.47-.17-3.35-.11-.88-.28-1.6-.51-2.16-.23-.56-.5-.96-.81-1.18-.32-.22-.68-.34-1.08-.34h-43.59c-1.48,0-2.73,.44-3.74,1.32s-1.52,2.31-1.52,4.29V109.02c0,1.99,.51,3.42,1.52,4.3,1.01,.88,2.26,1.32,3.74,1.32h43.86c.4,0,.78-.12,1.11-.37,.34-.25,.62-.64,.84-1.18,.22-.54,.39-1.25,.51-2.13,.11-.88,.17-1.97,.17-3.28s-.06-2.4-.17-3.28"/><path class="cls-2" d="M86.81,15.56c0-7.12-3.49-12.89-7.79-12.89s-7.79,5.77-7.79,12.89,3.49,12.89,7.79,12.89,7.79-5.77,7.79-12.89m39.96-4.87s-43.18,11.69-49.38,51.62C77.53,13.6,24.76,0,24.76,0c0,0,41.78,24.59,42.36,66.89,.61,45.21-36.57,74.84-36.57,74.84,0,0,39.98-23.82,46.12-69.49,.68,45.03,57.94,62.92,57.94,62.92,0,0-47.03-23.83-47.99-65.21-.92-39.25,40.15-59.26,40.15-59.26"/></svg>